<svg xmlns="http://www.w3.org/2000/svg" viewBox="0 0 996 209.02"><title>extra-59</title><path d="M953.06,439.59H1000c-31.34,40.66-79.21,69.73-128.47,90.52-52.78,22.2-105.76,34.27-135.27,53.41-9.67,6.25-14.58,11.64-17.78,18.32V570.22c0-9.72,13.4-21.39,25.22-27.23,28.72-14.24,63.81-22.68,113.72-44.1,31.62-13.48,71.88-35.14,95.64-59.3" transform="translate(-4 -395.21)" fill="#0079c1"/><path d="M718.47,462.79c0-10.76,8.17-23.18,23.36-23.18h193c-17.89,16.57-54.15,35.5-81,47.23-32.43,14.16-54.57,19.61-93.32,34.72-18.6,7.21-38.22,17.51-42,32.3V462.79" transform="translate(-4 -395.21)" fill="#ed1846"/><path d="M472,601.28a8.16,8.16,0,0,0,8.11-8.19V492.36c0-15.14,3.28-27.31,34.24-24.64,4.44.4,10.08.88,13,1.29V448.07c0-5.8-7.23-10.68-27.62-10.68-51.49,0-68.17,19.12-68.17,69.33v86.37a8.12,8.12,0,0,0,8.06,8.18ZM335.25,416.6h0c-5.94,6.23-6.95,14.06-6.95,18.47v98.44c0,50.26,16.48,69.41,68,69.41,20.38,0,25.34-4.91,25.34-10.79v-21c-2.92.48-6.27.95-10.71,1.31-31,2.77-34-9.43-34-24.62v-79h37a8.15,8.15,0,0,0,8.16-8.21V439.3H377V395.21c-15.78,6.15-34.44,13.66-41.73,21.39m291.3,103.91h0v51.27a170.87,170.87,0,0,1-42.75,1.38c-8.47-.83-15.67-7-15.67-15.94V536.31c0-8.92,7.35-15,15.87-15.8,20.31-1.76,42.55,0,42.55,0m-39.28-53.84h0c19.73-.25,39.28.63,39.28,27.18-11.76-.52-43.73-1.2-65.63,1.84-18.77,2.6-35.25,14.19-38.42,26.58-4,16.13-4,40.34,1.44,53.69,4.81,11.92,19.67,22.37,38,24.92,37.46,5.37,75.2,3,112.74.48V509.8c0-57.74-22.39-73-75-73-25.78,0-42.73,1.69-49,3-5,1.08-8.59,4-8.59,8.24v21.21c12.09-1.05,37.69-2.59,45.12-2.62M218.68,448.31h0c-3.12-5.32-10.41-9-15.09-9H154.11c15,22,52.17,75.94,52.17,75.94s-15.57,18.74-30,34.87c-16.27,18.19-33.76,25-56.66,25.85-6.17.3-43.71-.26-48.57-1.87-6.18-2.11-13.26-7.4-14.44-15.67S55.5,543,55.5,535.13l71,0c34.6,0,33.56-42.65,31-55.12C153.58,461,136.8,446.27,118,440.67c-14.71-4.31-46.23-5.59-71.62.63-18.6,4.61-35.73,20.41-38.93,39C3,506,2.28,535.71,8.84,561c4.68,17.91,16.32,32.52,32.7,38,14.91,4.91,45,5.22,60.79,5.22,49.28,0,71.93-2,96.67-24.12,9.25-8.18,17.94-19,30.06-34,0,0,22.2,35.35,28.65,46.14,3.15,5.31,10.38,9,15.11,9h51.7l-65.1-91.35,59.66-70.62H277.36c-5.34,0-11.89,4.08-16,9.19l-24,30.23s-13.88-22.32-18.67-30.43M55.7,505.7V481.41c0-8.92,7.15-14.84,15.39-15.89a97.16,97.16,0,0,1,20.89,0c8.94.9,15.42,5.39,15.42,19.45,0,13.37-1.39,20.73-9.8,20.73H55.7" transform="translate(-4 -395.21)" fill="#ed1846" fill-rule="evenodd"/></svg>